<svg xmlns="http://www.w3.org/2000/svg" viewBox="0 0 512 512">
  <rect width="512" height="512" fill="#4CAF50" rx="128" />
  <path d="M256 96c-88.4 0-160 71.6-160 160 0 88.4 71.6 160 160 160 88.4 0 160-71.6 160-160 0-88.4-71.6-160-160-160zm0 314c-85.5 0-154-68.5-154-154s68.5-154 154-154 154 68.5 154 154-68.5 154-154 154z" fill="#ffffff" />
  <path d="M372.9 158.1c-25.4-25.4-65.5-26.3-92-2.9l-144 112c-3.5 2.7-5.6 6.8-5.8 11.2s1.4 8.7 4.6 11.9l16 16c3.2 3.2 7.5 4.8 11.9 4.6s8.5-2.3 11.2-5.8l112-144c23.4-26.5 22.5-66.6-2.9-92zm-10.6 82.3l-112 144c-6.7 8.6-16.8 13.6-27.4 13.6-9.7 0-19-3.8-26-10.7l-16-16c-6.9-6.9-10.7-16.3-10.7-26 0-10.6 5-20.7 13.6-27.4l144-112c20.4-15.8 49.9-14 68.4 4.5s20.3 48 4.1 68.4z" fill="#ffffff" />
  <path d="M256 128c-70.7 0-128 57.3-128 128 0 70.7 57.3 128 128 128 70.7 0 128-57.3 128-128 0-70.7-57.3-128-128-128zm0 250c-67.5 0-122-54.5-122-122s54.5-122 122-122 122 54.5 122 122-54.5 122-122 122z" fill="#ffffff" />
  <path d="M329.4 201.4c-12.5-12.5-32.8-12.5-45.3 0l-73.4 73.4c-12.5 12.5-12.5 32.8 0 45.3 12.5 12.5 32.8 12.5 45.3 0l73.4-73.4c12.5-12.5 12.5-32.8 0-45.3z" fill="#ffffff" />
</svg>
